
<svg xmlns="http://www.w3.org/2000/svg" version="1.1" xmlns:xlink="http://www.w3.org/1999/xlink" preserveAspectRatio="none" x="0px" y="0px" width="128px" height="128px" viewBox="0 0 128 128">
<defs/>

<g transform="matrix( 1, 0, 0, 1, 64.05,64) ">
<g id="SHAPE">
<g id="Layer_2">
<g id="Layer_1">
<g>
<g>
<g>
<path fill="#1E1E1E" stroke="none" d="
M -0.05 -52.7
Q -21.75 -52.7 -37.25 -37.35 -52.7 -21.75 -52.7 0 -52.7 21.75 -37.25 37.2 -21.75 52.7 -0.05 52.7 21.85 52.7 37.25 37.2 52.7 21.75 52.7 0 52.7 -21.75 37.25 -37.35 21.85 -52.7 -0.05 -52.7 Z"/>
</g>
</g>

<g>
<path stroke="#949494" stroke-width="7" stroke-linejoin="round" stroke-linecap="round" fill="none" d="
M 52.7 0
Q 52.7 21.75 37.25 37.2 21.85 52.7 -0.05 52.7 -21.75 52.7 -37.25 37.2 -52.7 21.75 -52.7 0 -52.7 -21.75 -37.25 -37.35 -21.75 -52.7 -0.05 -52.7 21.85 -52.7 37.25 -37.35 52.7 -21.75 52.7 0 Z"/>
</g>
</g>
</g>
</g>

<g id="flattened">
<g>
<g>
<g>
<path fill="#D0D0D0" stroke="none" d="
M 34.5 -0.7
L 5.65 -15.1 5.65 13.65 34.5 -0.7
M -5.75 -15.1
L -34.6 -0.7 -5.75 13.65 -5.75 -15.1 Z"/>
</g>
</g>
</g>
</g>
</g>

<g id="ACTION">
<g id="ACTION">
<g id="Layer_2" transform="matrix( 1, 0, 0, 1, 0,-0.05) ">
<g>
<g>
<path stroke="#00FFCA" stroke-width="7" stroke-linejoin="round" stroke-linecap="round" fill="none" d="
M -47.25 -23.6
Q -43.5595703125 -30.9578125 -37.25 -37.3 -21.8 -52.65 -0.05 -52.65 21.85 -52.65 37.25 -37.3 42.7921875 -31.7291015625 46.35 -25.375"/>
</g>
</g>
</g>

<g id="ARROW" transform="matrix( 1, 0, 0, 1, 0,-0.05) ">
<g id="Layer_1" transform="matrix( 0.884735107421875, 0.4660491943359375, -0.4660491943359375, 0.884735107421875, -46.75,-24.55) ">
<g>
<g>
<g>
<path fill="#36393F" fill-opacity="0" stroke="none" d="
M 7.8 -3.9
L 0.05 -3.9
Q 0.05 -1.15 0.1 0.7
L 0.2 3.7 7.8 -3.9 Z"/>
</g>
</g>

<g>
<path stroke="#00FFCA" stroke-width="6" stroke-linejoin="round" stroke-linecap="butt" fill="none" d="
M 0.2 3.7
L 7.8 -3.9 0.05 -3.9
M -0.05 3.95
L -7.85 -3.9 0.05 -3.9"/>
</g>

<g>
<path stroke="#00FFCA" stroke-width="6" stroke-linejoin="round" stroke-linecap="round" fill="none" d="
M 0.1 0.7
L 0.2 3.7 -0.05 3.95"/>
</g>

<g>
<path stroke="#00FFCA" stroke-width="7" stroke-linejoin="round" stroke-linecap="round" fill="none" d="
M 0.05 -3.9
Q 0.05 -1.15 0.1 0.7"/>
</g>
</g>
</g>

<g id="Layer_1" transform="matrix( -0.884735107421875, 0.4660491943359375, 0.4660491943359375, 0.884735107421875, 46.35,-24.55) ">
<g>
<g>
<g>
<path fill="#36393F" fill-opacity="0" stroke="none" d="
M 7.8 -3.9
L 0.05 -3.9
Q 0.05 -1.15 0.1 0.7
L 0.2 3.7 7.8 -3.9 Z"/>
</g>
</g>

<g>
<path stroke="#00FFCA" stroke-width="6" stroke-linejoin="round" stroke-linecap="butt" fill="none" d="
M 0.2 3.7
L 7.8 -3.9 0.05 -3.9
M -0.05 3.95
L -7.85 -3.9 0.05 -3.9"/>
</g>

<g>
<path stroke="#00FFCA" stroke-width="6" stroke-linejoin="round" stroke-linecap="round" fill="none" d="
M 0.1 0.7
L 0.2 3.7 -0.05 3.95"/>
</g>

<g>
<path stroke="#00FFCA" stroke-width="7" stroke-linejoin="round" stroke-linecap="round" fill="none" d="
M 0.05 -3.9
Q 0.05 -1.15 0.1 0.7"/>
</g>
</g>
</g>
</g>

<g id="Layer_1" transform="matrix( 1, 0, 0, 1, 0,-45.2) ">
<g>
<g>
<g>
<path fill="#FF0000" stroke="none" d="
M 22.65 -6
L 0 -6 -22.6 -6 -0.1 18.75 22.65 -6 Z"/>
</g>
</g>

<g>
<path stroke="#FF0000" stroke-width="21.75" stroke-linejoin="miter" stroke-linecap="butt" stroke-miterlimit="3" fill="none" d="
M 0 -18.8
L 0 -6"/>
</g>

<g>
<path stroke="#FF0000" stroke-width="8" stroke-linejoin="round" stroke-linecap="round" fill="none" d="
M 0 -6
L 22.65 -6
M -22.6 -6
L 0 -6"/>
</g>

<g>
<path stroke="#FF0000" stroke-width="8" stroke-linejoin="miter" stroke-linecap="butt" stroke-miterlimit="3" fill="none" d="
M 22.65 -6
L -0.1 18.75 -22.6 -6"/>
</g>
</g>
</g>
</g>
</g>
</g>
</svg>
