
<svg xmlns="http://www.w3.org/2000/svg" version="1.1" xmlns:xlink="http://www.w3.org/1999/xlink" preserveAspectRatio="none" x="0px" y="0px" width="128px" height="128px" viewBox="0 0 128 128">
<defs/>

<g transform="matrix( 1, 0, 0, 1, 64.05,64) ">
<g id="SHAPE">
<g id="Layer_4">
<g id="Layer_1" transform="matrix( 1, 0, 0, 1, -0.05,0) ">
<g id="Layer_1" transform="matrix( 1.0659637451171875, 0, 0, 1.0659637451171875, -44,-43.8) ">
<g>
<g>
<g>
<path fill="#B1B1B1" stroke="none" d="
M 14.7 14.7
L 14.7 -14.7 -14.7 -14.7 -14.7 14.7 14.7 14.7 Z"/>
</g>
</g>

<g>
<path stroke="#DEDEDE" stroke-width="5" stroke-linejoin="round" stroke-linecap="round" fill="none" d="
M -14.7 -14.7
L 14.7 -14.7 14.7 14.7 -14.7 14.7 -14.7 -14.7 Z"/>
</g>
</g>
</g>

<g id="Layer_2" transform="matrix( 1.0659637451171875, 0, 0, 1.0659637451171875, -44,-43.8) "/>

<g id="Layer_1" transform="matrix( 1.0659637451171875, 0, 0, 1.0659637451171875, 0,-43.8) ">
<g>
<g>
<g>
<path fill="#B1B1B1" stroke="none" d="
M 14.7 14.7
L 14.7 -14.7 -14.7 -14.7 -14.7 14.7 14.7 14.7 Z"/>
</g>
</g>

<g>
<path stroke="#DEDEDE" stroke-width="5" stroke-linejoin="round" stroke-linecap="round" fill="none" d="
M -14.7 -14.7
L 14.7 -14.7 14.7 14.7 -14.7 14.7 -14.7 -14.7 Z"/>
</g>
</g>
</g>

<g id="Layer_2" transform="matrix( 1.0659637451171875, 0, 0, 1.0659637451171875, 0,-43.8) "/>

<g id="Layer_1" transform="matrix( 1.0659637451171875, 0, 0, 1.0659637451171875, 44.05,-43.8) ">
<g>
<g>
<g>
<path fill="#B1B1B1" stroke="none" d="
M 14.7 14.7
L 14.7 -14.7 -14.7 -14.7 -14.7 14.7 14.7 14.7 Z"/>
</g>
</g>

<g>
<path stroke="#DEDEDE" stroke-width="5" stroke-linejoin="round" stroke-linecap="round" fill="none" d="
M -14.7 -14.7
L 14.7 -14.7 14.7 14.7 -14.7 14.7 -14.7 -14.7 Z"/>
</g>
</g>
</g>

<g id="Layer_2" transform="matrix( 1.0659637451171875, 0, 0, 1.0659637451171875, 44.05,-43.8) "/>

<g id="Layer_1" transform="matrix( 1.0659637451171875, 0, 0, 1.0659637451171875, -44,-0.1) ">
<g>
<g>
<g>
<path fill="#B1B1B1" stroke="none" d="
M 14.7 14.7
L 14.7 -14.7 -14.7 -14.7 -14.7 14.7 14.7 14.7 Z"/>
</g>
</g>

<g>
<path stroke="#DEDEDE" stroke-width="5" stroke-linejoin="round" stroke-linecap="round" fill="none" d="
M -14.7 -14.7
L 14.7 -14.7 14.7 14.7 -14.7 14.7 -14.7 -14.7 Z"/>
</g>
</g>
</g>

<g id="Layer_2" transform="matrix( 1.0659637451171875, 0, 0, 1.0659637451171875, -44,-0.1) "/>

<g id="Layer_1" transform="matrix( 1.0659637451171875, 0, 0, 1.0659637451171875, 0,-0.1) ">
<g>
<g>
<g>
<path fill="#B1B1B1" stroke="none" d="
M 14.7 14.7
L 14.7 -14.7 -14.7 -14.7 -14.7 14.7 14.7 14.7 Z"/>
</g>
</g>

<g>
<path stroke="#DEDEDE" stroke-width="5" stroke-linejoin="round" stroke-linecap="round" fill="none" d="
M -14.7 -14.7
L 14.7 -14.7 14.7 14.7 -14.7 14.7 -14.7 -14.7 Z"/>
</g>
</g>
</g>

<g id="Layer_2" transform="matrix( 1.0659637451171875, 0, 0, 1.0659637451171875, 0,-0.1) "/>

<g id="Layer_1" transform="matrix( 1.0659637451171875, 0, 0, 1.0659637451171875, 44.05,-0.1) ">
<g>
<g>
<g>
<path fill="#B1B1B1" stroke="none" d="
M 14.7 14.7
L 14.7 -14.7 -14.7 -14.7 -14.7 14.7 14.7 14.7 Z"/>
</g>
</g>

<g>
<path stroke="#DEDEDE" stroke-width="5" stroke-linejoin="round" stroke-linecap="round" fill="none" d="
M -14.7 -14.7
L 14.7 -14.7 14.7 14.7 -14.7 14.7 -14.7 -14.7 Z"/>
</g>
</g>
</g>

<g id="Layer_2" transform="matrix( 1.0659637451171875, 0, 0, 1.0659637451171875, 44.05,-0.1) "/>

<g id="Layer_1" transform="matrix( 1.0659637451171875, 0, 0, 1.0659637451171875, -44,43.8) ">
<g>
<g>
<g>
<path fill="#B1B1B1" stroke="none" d="
M 14.7 14.7
L 14.7 -14.7 -14.7 -14.7 -14.7 14.7 14.7 14.7 Z"/>
</g>
</g>

<g>
<path stroke="#DEDEDE" stroke-width="5" stroke-linejoin="round" stroke-linecap="round" fill="none" d="
M -14.7 -14.7
L 14.7 -14.7 14.7 14.7 -14.7 14.7 -14.7 -14.7 Z"/>
</g>
</g>
</g>

<g id="Layer_2" transform="matrix( 1.0659637451171875, 0, 0, 1.0659637451171875, -44,43.8) "/>

<g id="Layer_1" transform="matrix( 1.0659637451171875, 0, 0, 1.0659637451171875, 0,43.8) ">
<g>
<g>
<g>
<path fill="#B1B1B1" stroke="none" d="
M 14.7 14.7
L 14.7 -14.7 -14.7 -14.7 -14.7 14.7 14.7 14.7 Z"/>
</g>
</g>

<g>
<path stroke="#DEDEDE" stroke-width="5" stroke-linejoin="round" stroke-linecap="round" fill="none" d="
M -14.7 -14.7
L 14.7 -14.7 14.7 14.7 -14.7 14.7 -14.7 -14.7 Z"/>
</g>
</g>
</g>

<g id="Layer_2" transform="matrix( 1.0659637451171875, 0, 0, 1.0659637451171875, 0,43.8) "/>

<g id="Layer_1" transform="matrix( 1.0659637451171875, 0, 0, 1.0659637451171875, 44.05,43.8) ">
<g>
<g>
<g>
<path fill="#B1B1B1" stroke="none" d="
M 14.7 14.7
L 14.7 -14.7 -14.7 -14.7 -14.7 14.7 14.7 14.7 Z"/>
</g>
</g>

<g>
<path stroke="#DEDEDE" stroke-width="5" stroke-linejoin="round" stroke-linecap="round" fill="none" d="
M -14.7 -14.7
L 14.7 -14.7 14.7 14.7 -14.7 14.7 -14.7 -14.7 Z"/>
</g>
</g>
</g>

<g id="Layer_2" transform="matrix( 1.0659637451171875, 0, 0, 1.0659637451171875, 44.05,43.8) "/>
</g>
</g>
</g>

<g id="ACTION"/>
</g>
</svg>
