
<svg xmlns="http://www.w3.org/2000/svg" version="1.1" xmlns:xlink="http://www.w3.org/1999/xlink" preserveAspectRatio="none" x="0px" y="0px" width="128px" height="128px" viewBox="0 0 128 128">
<defs/>

<g transform="matrix( 1, 0, 0, 1, 64.05,64) ">
<g id="SHAPE">
<g id="Layer_4">
<g id="Layer_1">
<g>
<g>
<g>
<path fill="#C6C6C6" stroke="none" d="
M -46.15 -46.15
L -46.15 46.15 46.15 46.15 46.15 -46.15 -46.15 -46.15 Z"/>
</g>
</g>

<g>
<path stroke="#ECECEC" stroke-width="8" stroke-linejoin="round" stroke-linecap="round" fill="none" d="
M -46.15 -46.15
L 46.15 -46.15 46.15 46.15 -46.15 46.15 -46.15 -46.15 Z"/>
</g>
</g>
</g>

<g id="Layer_2"/>
</g>

<g id="Layer_2"/>

<g id="Layer_5">
<g>
<g>
<g>
<path fill="#FF0000" stroke="none" d="
M -17.5 9.8
L 1.95 29.3 1.95 -29.3 -17.5 -9.8 -17.5 9.8
M -17.5 -9.8
L -27.3 -9.8 -27.3 9.8 -17.5 9.8 -17.5 -9.8 Z"/>
</g>
</g>

<g>
<path stroke="#FF0000" stroke-width="5" stroke-linejoin="round" stroke-linecap="round" fill="none" d="
M -17.5 9.8
L -27.3 9.8 -27.3 -9.8 -17.5 -9.8 1.95 -29.3 1.95 29.3 -17.5 9.8 -17.5 -9.8
M 27.35 6.65
L 20.65 0 13.95 6.65
M 13.95 -6.7
L 20.65 0 27.35 -6.7"/>
</g>
</g>
</g>
</g>

<g id="ACTION"/>
</g>
</svg>
