
<svg xmlns="http://www.w3.org/2000/svg" version="1.1" xmlns:xlink="http://www.w3.org/1999/xlink" preserveAspectRatio="none" x="0px" y="0px" width="128px" height="128px" viewBox="0 0 128 128">
<defs/>

<g transform="matrix( 1, 0, 0, 1, 64.05,64) ">
<g id="SHAPE">
<g id="Layer_4">
<g id="Layer_1" transform="matrix( 1, 0, 0, 1, -0.05,0) ">
<g>
<g>
<g>
<path fill="#DEDEDE" fill-opacity="0.34901960784313724" stroke="none" d="
M 62.4 28.15
Q 62.4 27 61.65 26.25 60.85 25.45 59.7 25.45
L 28.4 25.45
Q 27.25 25.45 26.5 26.25 25.7 27 25.7 28.15
L 25.7 59.45
Q 25.7 60.6 26.5 61.4 27.25 62.15 28.4 62.15
L 59.7 62.15
Q 60.85 62.15 61.65 61.4 62.4 60.6 62.4 59.45
L 62.4 28.15
M 31.05 56.8
L 31.05 30.8 57.05 30.8 57.05 56.8 31.05 56.8
M -15.65 25.45
Q -16.8 25.45 -17.55 26.25 -18.35 27 -18.35 28.15
L -18.35 59.45
Q -18.35 60.6 -17.55 61.4 -16.8 62.15 -15.65 62.15
L 15.65 62.15
Q 16.8 62.15 17.6 61.4 18.35 60.6 18.35 59.45
L 18.35 28.15
Q 18.35 27 17.6 26.25 16.8 25.45 15.65 25.45
L -15.65 25.45
M -13 56.8
L -13 30.8 13 30.8 13 56.8 -13 56.8
M -25.65 28.15
Q -25.65 27 -26.4 26.25 -27.2 25.45 -28.35 25.45
L -59.65 25.45
Q -60.8 25.45 -61.55 26.25 -62.35 27 -62.35 28.15
L -62.35 59.45
Q -62.35 60.6 -61.55 61.4 -60.8 62.15 -59.65 62.15
L -28.35 62.15
Q -27.2 62.15 -26.4 61.4 -25.65 60.6 -25.65 59.45
L -25.65 28.15
M -57 56.8
L -57 30.8 -31 30.8 -31 56.8 -57 56.8
M -25.65 -59.45
Q -25.65 -60.6 -26.4 -61.35 -27.2 -62.15 -28.35 -62.15
L -59.65 -62.15
Q -60.8 -62.15 -61.55 -61.35 -62.35 -60.6 -62.35 -59.45
L -62.35 -28.15
Q -62.35 -27 -61.55 -26.2 -60.8 -25.45 -59.65 -25.45
L -28.35 -25.45
Q -27.2 -25.45 -26.4 -26.2 -25.65 -27 -25.65 -28.15
L -25.65 -59.45
M -57 -30.8
L -57 -56.8 -31 -56.8 -31 -30.8 -57 -30.8
M 18.35 -59.45
Q 18.35 -60.6 17.6 -61.35 16.8 -62.15 15.65 -62.15
L -15.65 -62.15
Q -16.8 -62.15 -17.55 -61.35 -18.35 -60.6 -18.35 -59.45
L -18.35 -28.15
Q -18.35 -27 -17.55 -26.2 -16.8 -25.45 -15.65 -25.45
L 15.65 -25.45
Q 16.8 -25.45 17.6 -26.2 18.35 -27 18.35 -28.15
L 18.35 -59.45
M 13 -56.8
L 13 -30.8 -13 -30.8 -13 -56.8 13 -56.8
M 62.4 -59.45
Q 62.4 -60.6 61.65 -61.35 60.85 -62.15 59.7 -62.15
L 28.4 -62.15
Q 27.25 -62.15 26.5 -61.35 25.7 -60.6 25.7 -59.45
L 25.7 -28.15
Q 25.7 -27 26.5 -26.2 27.25 -25.45 28.4 -25.45
L 59.7 -25.45
Q 60.85 -25.45 61.65 -26.2 62.4 -27 62.4 -28.15
L 62.4 -59.45
M 31.05 -30.8
L 31.05 -56.8 57.05 -56.8 57.05 -30.8 31.05 -30.8 Z"/>

<path fill="#B1B1B1" fill-opacity="0.34901960784313724" stroke="none" d="
M 31.05 30.8
L 31.05 56.8 57.05 56.8 57.05 30.8 31.05 30.8
M -13 30.8
L -13 56.8 13 56.8 13 30.8 -13 30.8
M -57 30.8
L -57 56.8 -31 56.8 -31 30.8 -57 30.8
M -57 -56.8
L -57 -30.8 -31 -30.8 -31 -56.8 -57 -56.8
M 13 -30.8
L 13 -56.8 -13 -56.8 -13 -30.8 13 -30.8
M 31.05 -56.8
L 31.05 -30.8 57.05 -30.8 57.05 -56.8 31.05 -56.8 Z"/>
</g>
</g>
</g>

<g id="Layer_1" transform="matrix( 1.0659637451171875, 0, 0, 1.0659637451171875, -44,-0.1) ">
<g>
<g>
<g>
<path fill="#B1B1B1" stroke="none" d="
M 14.7 14.7
L 14.7 -14.7 -14.7 -14.7 -14.7 14.7 14.7 14.7 Z"/>
</g>
</g>

<g>
<path stroke="#DEDEDE" stroke-width="5" stroke-linejoin="round" stroke-linecap="round" fill="none" d="
M -14.7 -14.7
L 14.7 -14.7 14.7 14.7 -14.7 14.7 -14.7 -14.7 Z"/>
</g>
</g>
</g>

<g id="Layer_2" transform="matrix( 1.0659637451171875, 0, 0, 1.0659637451171875, -44,-0.1) "/>

<g id="Layer_1" transform="matrix( 1.0659637451171875, 0, 0, 1.0659637451171875, 0,-0.1) ">
<g>
<g>
<g>
<path fill="#B1B1B1" stroke="none" d="
M 14.7 14.7
L 14.7 -14.7 -14.7 -14.7 -14.7 14.7 14.7 14.7 Z"/>
</g>
</g>

<g>
<path stroke="#DEDEDE" stroke-width="5" stroke-linejoin="round" stroke-linecap="round" fill="none" d="
M -14.7 -14.7
L 14.7 -14.7 14.7 14.7 -14.7 14.7 -14.7 -14.7 Z"/>
</g>
</g>
</g>

<g id="Layer_2" transform="matrix( 1.0659637451171875, 0, 0, 1.0659637451171875, 0,-0.1) "/>

<g id="Layer_1" transform="matrix( 1.0659637451171875, 0, 0, 1.0659637451171875, 44.05,-0.1) ">
<g>
<g>
<g>
<path fill="#B1B1B1" stroke="none" d="
M 14.7 14.7
L 14.7 -14.7 -14.7 -14.7 -14.7 14.7 14.7 14.7 Z"/>
</g>
</g>

<g>
<path stroke="#DEDEDE" stroke-width="5" stroke-linejoin="round" stroke-linecap="round" fill="none" d="
M -14.7 -14.7
L 14.7 -14.7 14.7 14.7 -14.7 14.7 -14.7 -14.7 Z"/>
</g>
</g>
</g>

<g id="Layer_2" transform="matrix( 1.0659637451171875, 0, 0, 1.0659637451171875, 44.05,-0.1) "/>
</g>
</g>

<g id="Layer_2">
<g id="Layer_1" transform="matrix( 1, 0, 0, 1, 0,-27.25) ">
<g>
<g>
<g>
<path fill="#FF0000" stroke="none" d="
M 22.65 -6
L 0 -6 -22.6 -6 -0.1 18.75 22.65 -6 Z"/>
</g>
</g>

<g>
<path stroke="#FF0000" stroke-width="21.75" stroke-linejoin="miter" stroke-linecap="butt" stroke-miterlimit="3" fill="none" d="
M 0 -18.8
L 0 -6"/>
</g>

<g>
<path stroke="#FF0000" stroke-width="8" stroke-linejoin="round" stroke-linecap="round" fill="none" d="
M 0 -6
L 22.65 -6
M -22.6 -6
L 0 -6"/>
</g>

<g>
<path stroke="#FF0000" stroke-width="8" stroke-linejoin="miter" stroke-linecap="butt" stroke-miterlimit="3" fill="none" d="
M 22.65 -6
L -0.1 18.75 -22.6 -6"/>
</g>
</g>
</g>
</g>
</g>

<g id="ACTION"/>
</g>
</svg>
