
<svg xmlns="http://www.w3.org/2000/svg" version="1.1" xmlns:xlink="http://www.w3.org/1999/xlink" preserveAspectRatio="none" x="0px" y="0px" width="128px" height="128px" viewBox="0 0 128 128">
<defs/>

<g transform="matrix( 1, 0, 0, 1, 64.05,64) ">
<g id="SHAPE">
<g id="Layer_4">
<g id="Layer_1">
<g>
<g>
<g>
<path fill="#AD7309" stroke="none" d="
M -0.05 -52.7
Q -21.75 -52.7 -37.25 -37.35 -52.7 -21.75 -52.7 0 -52.7 21.75 -37.25 37.2 -21.75 52.7 -0.05 52.7 21.85 52.7 37.25 37.2 52.7 21.75 52.7 0 52.7 -21.75 37.25 -37.35 21.85 -52.7 -0.05 -52.7 Z"/>
</g>
</g>

<g>
<path stroke="#E2AD5D" stroke-width="7" stroke-linejoin="round" stroke-linecap="round" fill="none" d="
M 52.7 0
Q 52.7 21.75 37.25 37.2 21.85 52.7 -0.05 52.7 -21.75 52.7 -37.25 37.2 -52.7 21.75 -52.7 0 -52.7 -21.75 -37.25 -37.35 -21.75 -52.7 -0.05 -52.7 21.85 -52.7 37.25 -37.35 52.7 -21.75 52.7 0 Z"/>
</g>
</g>
</g>
</g>

<g id="Layer_5">
<g>
<g>
<g>
<path fill="#FFECD2" stroke="none" d="
M -14.15 13.5
L 15.1 13.5 0.45 -15.7 -14.15 13.5 Z"/>
</g>
</g>
</g>
</g>
</g>

<g id="ACTION"/>
</g>
</svg>
