
<svg xmlns="http://www.w3.org/2000/svg" version="1.1" xmlns:xlink="http://www.w3.org/1999/xlink" preserveAspectRatio="none" x="0px" y="0px" width="128px" height="128px" viewBox="0 0 128 128">
<defs/>

<g transform="matrix( 1, 0, 0, 1, 64.05,64) ">
<g id="SHAPE">
<g id="Layer_2">
<g id="Layer_1">
<g>
<g>
<g>
<path fill="#1E1E1E" stroke="none" d="
M -0.05 -52.7
Q -21.75 -52.7 -37.25 -37.35 -52.7 -21.75 -52.7 0 -52.7 21.75 -37.25 37.2 -21.75 52.7 -0.05 52.7 21.85 52.7 37.25 37.2 52.7 21.75 52.7 0 52.7 -21.75 37.25 -37.35 21.85 -52.7 -0.05 -52.7 Z"/>
</g>
</g>

<g>
<path stroke="#949494" stroke-width="7" stroke-linejoin="round" stroke-linecap="round" fill="none" d="
M 52.7 0
Q 52.7 21.75 37.25 37.2 21.85 52.7 -0.05 52.7 -21.75 52.7 -37.25 37.2 -52.7 21.75 -52.7 0 -52.7 -21.75 -37.25 -37.35 -21.75 -52.7 -0.05 -52.7 21.85 -52.7 37.25 -37.35 52.7 -21.75 52.7 0 Z"/>
</g>
</g>
</g>
</g>

<g id="flattened">
<g>
<g>
<g>
<path fill="#D0D0D0" stroke="none" d="
M 2.3 13.55
L 31.55 13.55 16.9 -15.65 2.3 13.55
M 0.7 -15
L -28.55 -15 -13.95 14.2 0.7 -15 Z"/>
</g>
</g>
</g>
</g>
</g>

<g id="ACTION"/>
</g>
</svg>
